<svg width="64" height="64" viewBox="0 0 64 64" fill="none" xmlns="http://www.w3.org/2000/svg">
  <!-- Shield with enhanced styling -->
  <path d="M32 8L16 16V30C16 42 23 53 32 56C41 53 48 42 48 30V16L32 8Z" 
        fill="url(#shieldGradient)" 
        stroke="url(#strokeGradient)" 
        stroke-width="1.5" 
        filter="url(#dropShadow)"/>
  
  <!-- Lock Body with enhanced details -->
  <rect x="26" y="30" width="12" height="10" rx="2" 
        fill="#FFFFFF" 
        stroke="#4B5563" 
        stroke-width="1"/>
  
  <!-- Lock Shackle with better proportions -->
  <path d="M28 30V25C28 22.2 29.8 20 32 20C34.2 20 36 22.2 36 25V30" 
        stroke="#4B5563" 
        stroke-width="2.5" 
        stroke-linecap="round" 
        fill="none"/>
  
  <!-- Lock Keyhole with refined design -->
  <circle cx="32" cy="35" r="2" fill="#4B5563"/>
  <rect x="31" y="35" width="2" height="3" rx="1" fill="#4B5563"/>
  
  <!-- Enhanced gradients and effects -->
  <defs>
    <linearGradient id="shieldGradient" x1="32" y1="8" x2="32" y2="56" gradientUnits="userSpaceOnUse">
      <stop offset="0%" stop-color="#F9FAFB"/>
      <stop offset="30%" stop-color="#F3F4F6"/>
      <stop offset="70%" stop-color="#E5E7EB"/>
      <stop offset="100%" stop-color="#D1D5DB"/>
    </linearGradient>
    
    <linearGradient id="strokeGradient" x1="32" y1="8" x2="32" y2="56" gradientUnits="userSpaceOnUse">
      <stop offset="0%" stop-color="#9CA3AF"/>
      <stop offset="100%" stop-color="#6B7280"/>
    </linearGradient>
    
    <filter id="dropShadow" x="-20%" y="-20%" width="140%" height="140%">
      <feDropShadow dx="0" dy="2" stdDeviation="2" flood-color="#000000" flood-opacity="0.15"/>
    </filter>
  </defs>
</svg>
