<svg width="360" height="64" viewBox="0 0 360 64" fill="none" xmlns="http://www.w3.org/2000/svg">
  <!-- Shield with enhanced styling -->
  <path d="M32 8L16 16V30C16 42 23 53 32 56C41 53 48 42 48 30V16L32 8Z" 
        fill="url(#shieldGradient)" 
        stroke="url(#strokeGradient)" 
        stroke-width="1.5" 
        filter="url(#dropShadow)"/>
  
  <!-- Lock Body with enhanced details -->
  <rect x="26" y="30" width="12" height="10" rx="2" 
        fill="#1F2937" 
        stroke="#9CA3AF" 
        stroke-width="1"/>
  
  <!-- Lock Shackle with better proportions -->
  <path d="M28 30V25C28 22.2 29.8 20 32 20C34.2 20 36 22.2 36 25V30" 
        stroke="#9CA3AF" 
        stroke-width="2.5" 
        stroke-linecap="round" 
        fill="none"/>
  
  <!-- Lock Keyhole with refined design -->
  <circle cx="32" cy="35" r="2" fill="#E5E7EB"/>
  <rect x="31" y="35" width="2" height="3" rx="1" fill="#E5E7EB"/>
  
  <!-- Typography with proper spacing and weights -->
  <text x="72" y="28" 
        font-family="Inter, -apple-system, BlinkMacSystemFont, 'Segoe UI', Roboto, sans-serif" 
        font-size="22" 
        font-weight="800" 
        letter-spacing="0.8px"
        fill="#F9FAFB">SECURITY</text>
  
  <text x="72" y="48" 
        font-family="Inter, -apple-system, BlinkMacSystemFont, 'Segoe UI', Roboto, sans-serif" 
        font-size="18" 
        font-weight="600" 
        letter-spacing="1.2px"
        fill="#9CA3AF">ENGINEERING</text>
  
  <!-- Enhanced gradients and effects -->
  <defs>
    <linearGradient id="shieldGradient" x1="32" y1="8" x2="32" y2="56" gradientUnits="userSpaceOnUse">
      <stop offset="0%" stop-color="#6B7280"/>
      <stop offset="30%" stop-color="#4B5563"/>
      <stop offset="70%" stop-color="#374151"/>
      <stop offset="100%" stop-color="#1F2937"/>
    </linearGradient>
    
    <linearGradient id="strokeGradient" x1="32" y1="8" x2="32" y2="56" gradientUnits="userSpaceOnUse">
      <stop offset="0%" stop-color="#9CA3AF"/>
      <stop offset="100%" stop-color="#6B7280"/>
    </linearGradient>
    
    <filter id="dropShadow" x="-20%" y="-20%" width="140%" height="140%">
      <feDropShadow dx="0" dy="2" stdDeviation="2" flood-color="#000000" flood-opacity="0.4"/>
    </filter>
  </defs>
</svg>
